# xmcd
#
# Track frame offsets: 
#        150
#        19830
#        33816
#        50280
#        69236
#        88983
#        108688
#        122488
#        146612
#        164543
#
# Disc length: 2415 seconds
#
# Revision: 0
# Processed by: cddbd v1.5.2PL0 Copyright (c) Steve Scherf et al.
# Submitted via: ExactAudioCopyFreeDBPlugin 1.0
#
DISCID=83096d0a
DTITLE=Nadia Reid - Preservation
DYEAR=2017
DGENRE=Alternative
TTITLE0=Preservation
TTITLE1=The Arrow and The Aim
TTITLE2=Richard
TTITLE3=I Come Home To You
TTITLE4=Hanson St Part 2 (A River)
TTITLE5=Right On Time
TTITLE6=Reach My Destination
TTITLE7=Te Aro
TTITLE8=The Way It Goes
TTITLE9=Ain't Got You
EXTD=
EXTT0=
EXTT1=
EXTT2=
EXTT3=
EXTT4=
EXTT5=
EXTT6=
EXTT7=
EXTT8=
EXTT9=
PLAYORDER=
